<svg xmlns="http://www.w3.org/2000/svg" width="44.171" height="44.171" viewBox="0 0 44.171 44.171">
  <g id="vuesax_outline_eraser" data-name="vuesax/outline/eraser" transform="translate(-108 -380)">
    <g id="eraser" transform="translate(108 380)">
      <path id="Vector" d="M23.466,2.761H1.38A1.39,1.39,0,0,1,0,1.38,1.39,1.39,0,0,1,1.38,0H23.466a1.39,1.39,0,0,1,1.38,1.38A1.39,1.39,0,0,1,23.466,2.761Z" transform="translate(15.184 39.11)" fill="#076aff"/>
      <path id="Vector-2" data-name="Vector" d="M13.353,39.381a6.818,6.818,0,0,1-4.877-2.025L2.015,30.9a6.909,6.909,0,0,1,0-9.754l19.2-19.2a7.084,7.084,0,0,1,9.754,0l6.46,6.46a6.909,6.909,0,0,1,0,9.754l-19.2,19.2A6.714,6.714,0,0,1,13.353,39.381ZM3.966,28.964l6.46,6.46a4.236,4.236,0,0,0,5.853,0l19.2-19.2a4.132,4.132,0,0,0,0-5.853l-6.46-6.46a4.254,4.254,0,0,0-5.853,0l-19.2,19.2A4.132,4.132,0,0,0,3.966,28.964Z" transform="translate(2.365 2.416)" fill="#076aff"/>
      <path id="Vector-3" data-name="Vector" d="M15.639,17.02a1.365,1.365,0,0,1-.975-.4L.4,2.351A1.379,1.379,0,0,1,2.351.4L16.615,14.664a1.389,1.389,0,0,1,0,1.951A1.365,1.365,0,0,1,15.639,17.02Z" transform="translate(11.728 15.428)" fill="#076aff"/>
      <path id="Vector-4" data-name="Vector" d="M1.376,13.173a1.365,1.365,0,0,1-.975-.4,1.389,1.389,0,0,1,0-1.951L10.817.4a1.379,1.379,0,1,1,1.951,1.951L2.351,12.768A1.365,1.365,0,0,1,1.376,13.173Z" transform="translate(5.103 20.71)" fill="#076aff"/>
      <path id="Vector-5" data-name="Vector" d="M1.376,13.173a1.365,1.365,0,0,1-.975-.4,1.389,1.389,0,0,1,0-1.951L10.817.4a1.38,1.38,0,0,1,1.951,1.951L2.351,12.768A1.379,1.379,0,0,1,1.376,13.173Z" transform="translate(10.292 25.918)" fill="#076aff"/>
      <path id="Vector-6" data-name="Vector" d="M0,0H44.171V44.171H0Z" fill="none" opacity="0"/>
    </g>
  </g>
</svg>
