<svg xmlns="http://www.w3.org/2000/svg" width="50.795" height="50.795" viewBox="0 0 50.795 50.795">
  <g id="vuesax_outline_edit-2" data-name="vuesax/outline/edit-2" transform="translate(0)">
    <g id="edit-2" transform="translate(0 0)">
      <path id="Vector" d="M4.843,38.295a4.849,4.849,0,0,1-3.365-1.27,5.04,5.04,0,0,1-1.439-4.3l.783-6.857a7.63,7.63,0,0,1,1.841-3.937L20.039,3.542c4.339-4.593,8.868-4.72,13.461-.381s4.72,8.868.381,13.461L16.5,35.014a7.628,7.628,0,0,1-3.831,2.053L5.858,38.231C5.5,38.252,5.181,38.295,4.843,38.295ZM26.833,3.14c-1.63,0-3.048,1.016-4.487,2.54L4.97,24.093a4.887,4.887,0,0,0-.995,2.116l-.783,6.857a1.86,1.86,0,0,0,.466,1.63,1.907,1.907,0,0,0,1.651.381l6.815-1.164a4.729,4.729,0,0,0,2.053-1.1L31.552,14.421c2.624-2.794,3.577-5.376-.254-8.974C29.605,3.818,28.145,3.14,26.833,3.14Z" transform="translate(6.883 3.019)" fill="#707070"/>
      <path id="Vector-2" data-name="Vector" d="M13.1,14.07h-.148A14.517,14.517,0,0,1,.017,1.837,1.612,1.612,0,0,1,1.35.017,1.612,1.612,0,0,1,3.171,1.35a11.37,11.37,0,0,0,10.117,9.566,1.589,1.589,0,0,1,1.418,1.735A1.639,1.639,0,0,1,13.1,14.07Z" transform="translate(23.603 9.105)" fill="#707070"/>
      <path id="Vector-3" data-name="Vector" d="M39.684,3.175H1.587A1.6,1.6,0,0,1,0,1.587,1.6,1.6,0,0,1,1.587,0h38.1a1.6,1.6,0,0,1,1.587,1.587A1.6,1.6,0,0,1,39.684,3.175Z" transform="translate(4.762 44.975)" fill="#707070"/>
      <path id="Vector-4" data-name="Vector" d="M0,0H50.8V50.8H0Z" fill="none" opacity="0"/>
    </g>
  </g>
</svg>
