<svg xmlns="http://www.w3.org/2000/svg" width="44.525" height="44.525" viewBox="0 0 44.525 44.525">
  <g id="vuesax_outline_rotate-right" data-name="vuesax/outline/rotate-right" transform="translate(-300 -316)">
    <g id="rotate-right" transform="translate(300 316)">
      <path id="Vector" d="M17.476,34.971A17.485,17.485,0,0,1,17.476,0a19.4,19.4,0,0,1,5.77.853,1.4,1.4,0,0,1-.816,2.672,16.942,16.942,0,0,0-4.953-.742A14.675,14.675,0,1,0,29.7,9.313a1.392,1.392,0,1,1,2.319-1.54,17.48,17.48,0,0,1-14.545,27.2Z" transform="translate(4.786 7.235)" fill="#707070"/>
      <path id="Vector-2" data-name="Vector" d="M6.761,8.95A1.414,1.414,0,0,1,5.7,8.467L.342,2.308A1.394,1.394,0,1,1,2.438.471L7.8,6.631A1.4,1.4,0,0,1,7.67,8.6,1.275,1.275,0,0,1,6.761,8.95Z" transform="translate(23.164 2.311)" fill="#707070"/>
      <path id="Vector-3" data-name="Vector" d="M1.4,7.359A1.4,1.4,0,0,1,.561,4.836L6.813.272A1.393,1.393,0,0,1,8.464,2.517L2.212,7.1A1.3,1.3,0,0,1,1.4,7.359Z" transform="translate(22.277 8.466)" fill="#707070"/>
      <path id="Vector-4" data-name="Vector" d="M0,0H44.525V44.525H0Z" fill="none" opacity="0"/>
    </g>
  </g>
</svg>
