<svg xmlns="http://www.w3.org/2000/svg" width="46.617" height="46.617" viewBox="0 0 46.617 46.617">
  <g id="vuesax_outline_rotate-left" data-name="vuesax/outline/rotate-left" transform="translate(-236 -316)">
    <g id="rotate-left" transform="translate(236 316)">
      <path id="Vector" d="M18.3,36.633A18.3,18.3,0,0,1,3.088,8.158,1.457,1.457,0,0,1,5.516,9.77,15.389,15.389,0,1,0,18.3,2.933a17.726,17.726,0,0,0-5.186.758,1.462,1.462,0,0,1-.855-2.8A20.954,20.954,0,0,1,18.3,0a18.316,18.316,0,0,1,0,36.633Z" transform="translate(5.011 7.556)" fill="#707070"/>
      <path id="Vector-2" data-name="Vector" d="M1.463,9.359a1.479,1.479,0,0,1-.952-.35A1.454,1.454,0,0,1,.356,6.95L5.969.5A1.451,1.451,0,0,1,8.028.365a1.468,1.468,0,0,1,.136,2.059L2.551,8.854A1.471,1.471,0,0,1,1.463,9.359Z" transform="translate(13.823 2.431)" fill="#707070"/>
      <path id="Vector-3" data-name="Vector" d="M8.007,7.7a1.536,1.536,0,0,1-.855-.272L.587,2.626A1.459,1.459,0,0,1,2.316.275L8.862,5.054a1.455,1.455,0,0,1,.311,2.039A1.378,1.378,0,0,1,8.007,7.7Z" transform="translate(13.825 8.873)" fill="#707070"/>
      <path id="Vector-4" data-name="Vector" d="M0,0H46.617V46.617H0Z" fill="none" opacity="0"/>
    </g>
  </g>
</svg>
