<svg xmlns="http://www.w3.org/2000/svg" width="24" height="24" viewBox="0 0 24 24">
  <g id="vuesax_outline_info-circle" data-name="vuesax/outline/info-circle" transform="translate(-364 -252)">
    <g id="info-circle">
      <path id="Vector" d="M10.75,21.5A10.75,10.75,0,1,1,21.5,10.75,10.759,10.759,0,0,1,10.75,21.5Zm0-20A9.25,9.25,0,1,0,20,10.75,9.261,9.261,0,0,0,10.75,1.5Z" transform="translate(365.25 253.25)" fill="#292d32"/>
      <path id="Vector-2" data-name="Vector" d="M.75,6.5A.755.755,0,0,1,0,5.75v-5A.755.755,0,0,1,.75,0,.755.755,0,0,1,1.5.75v5A.755.755,0,0,1,.75,6.5Z" transform="translate(375.25 259.25)" fill="#292d32"/>
      <path id="Vector-3" data-name="Vector" d="M1,2a1,1,0,0,1-.38-.08A1.155,1.155,0,0,1,.29,1.7a1.032,1.032,0,0,1-.21-.33A1,1,0,0,1,0,1,1,1,0,0,1,.08.615,1.155,1.155,0,0,1,.29.285,1.155,1.155,0,0,1,.62.075a1,1,0,0,1,.76,0,1.155,1.155,0,0,1,.33.21,1.155,1.155,0,0,1,.21.33A1,1,0,0,1,2,1a1,1,0,0,1-.08.38,1.032,1.032,0,0,1-.21.33,1.155,1.155,0,0,1-.33.21A1,1,0,0,1,1,2Z" transform="translate(375 267.005)" fill="#292d32"/>
      <path id="Vector-4" data-name="Vector" d="M0,0H24V24H0Z" transform="translate(364 252)" fill="none" opacity="0"/>
    </g>
  </g>
</svg>
